<svg xmlns="http://www.w3.org/2000/svg" viewBox="0 0 500 500"><g id="freepik--background-complete--inject-1"><rect y="382.4" width="500" height="0.25" style="fill:#ebebeb"></rect><rect x="416.78" y="398.49" width="33.12" height="0.25" style="fill:#ebebeb"></rect><rect x="322.53" y="401.21" width="8.69" height="0.25" style="fill:#ebebeb"></rect><rect x="396.59" y="389.21" width="19.19" height="0.25" style="fill:#ebebeb"></rect><rect x="52.46" y="390.89" width="43.19" height="0.25" style="fill:#ebebeb"></rect><rect x="104.56" y="390.89" width="6.33" height="0.25" style="fill:#ebebeb"></rect><rect x="131.47" y="395.11" width="93.68" height="0.25" style="fill:#ebebeb"></rect><path d="M237,337.8H43.91a5.71,5.71,0,0,1-5.7-5.71V60.66A5.71,5.71,0,0,1,43.91,55H237a5.71,5.71,0,0,1,5.71,5.71V332.09A5.71,5.71,0,0,1,237,337.8ZM43.91,55.2a5.46,5.46,0,0,0-5.45,5.46V332.09a5.46,5.46,0,0,0,5.45,5.46H237a5.47,5.47,0,0,0,5.46-5.46V60.66A5.47,5.47,0,0,0,237,55.2Z" style="fill:#ebebeb"></path><path d="M453.31,337.8H260.21a5.72,5.72,0,0,1-5.71-5.71V60.66A5.72,5.72,0,0,1,260.21,55h193.1A5.71,5.71,0,0,1,459,60.66V332.09A5.71,5.71,0,0,1,453.31,337.8ZM260.21,55.2a5.47,5.47,0,0,0-5.46,5.46V332.09a5.47,5.47,0,0,0,5.46,5.46h193.1a5.47,5.47,0,0,0,5.46-5.46V60.66a5.47,5.47,0,0,0-5.46-5.46Z" style="fill:#ebebeb"></path><rect x="278.2" y="161.21" width="150.21" height="220.23" transform="translate(706.62 542.64) rotate(180)" style="fill:#f0f0f0"></rect><rect x="283.51" y="168.14" width="139.59" height="40.67" transform="translate(706.62 376.95) rotate(180)" style="fill:#e0e0e0"></rect><rect x="415.18" y="174.72" width="7.93" height="34.09" transform="translate(838.28 383.53) rotate(180)" style="fill:#ebebeb"></rect><rect x="376.83" y="174.72" width="7.93" height="34.09" transform="translate(761.59 383.53) rotate(180)" style="fill:#ebebeb"></rect><rect x="330.35" y="174.3" width="7.93" height="34.09" transform="translate(631.28 436.68) rotate(-170.22)" style="fill:#ebebeb"></rect><rect x="405.35" y="179.22" width="7.93" height="29.6" transform="translate(818.63 388.03) rotate(180)" style="fill:#ebebeb"></rect><rect x="387.12" y="179.22" width="7.93" height="29.6" transform="translate(782.18 388.03) rotate(180)" style="fill:#ebebeb"></rect><rect x="341.12" y="179.22" width="7.93" height="29.6" transform="translate(690.17 388.03) rotate(180)" style="fill:#ebebeb"></rect><rect x="363.11" y="178.71" width="7.93" height="29.6" transform="translate(683.44 462.03) rotate(-167.47)" style="fill:#ebebeb"></rect><rect x="398.49" y="173.03" width="3.96" height="35.78" transform="translate(800.95 381.84) rotate(180)" style="fill:#ebebeb"></rect><rect x="351.33" y="173.03" width="3.96" height="35.78" transform="translate(706.62 381.84) rotate(180)" style="fill:#ebebeb"></rect><rect x="283.51" y="215.25" width="139.59" height="40.67" style="fill:#e0e0e0"></rect><rect x="283.51" y="221.84" width="7.93" height="34.09" style="fill:#ebebeb"></rect><rect x="321.86" y="221.84" width="7.93" height="34.09" style="fill:#ebebeb"></rect><rect x="368.34" y="221.41" width="7.93" height="34.09" transform="translate(-35.09 66.69) rotate(-9.78)" style="fill:#ebebeb"></rect><rect x="293.34" y="226.33" width="7.93" height="29.6" style="fill:#ebebeb"></rect><rect x="311.57" y="226.33" width="7.93" height="29.6" style="fill:#ebebeb"></rect><rect x="357.57" y="226.33" width="7.93" height="29.6" style="fill:#ebebeb"></rect><rect x="335.58" y="225.82" width="7.93" height="29.6" transform="translate(-44.11 79.37) rotate(-12.53)" style="fill:#ebebeb"></rect><rect x="304.16" y="220.14" width="3.96" height="35.78" style="fill:#ebebeb"></rect><rect x="351.33" y="220.14" width="3.96" height="35.78" style="fill:#ebebeb"></rect><rect x="415.18" y="221.84" width="7.93" height="34.09" transform="translate(838.28 477.76) rotate(180)" style="fill:#ebebeb"></rect><rect x="405.35" y="226.33" width="7.93" height="29.6" transform="translate(818.63 482.25) rotate(180)" style="fill:#ebebeb"></rect><rect x="387.12" y="226.33" width="7.93" height="29.6" transform="translate(782.18 482.25) rotate(180)" style="fill:#ebebeb"></rect><rect x="398.49" y="220.14" width="3.96" height="35.78" transform="translate(800.95 476.07) rotate(180)" style="fill:#ebebeb"></rect><rect x="283.51" y="262.37" width="139.59" height="40.67" transform="translate(706.62 565.41) rotate(180)" style="fill:#e0e0e0"></rect><rect x="335.06" y="268.95" width="7.93" height="34.09" transform="translate(678.04 571.99) rotate(180)" style="fill:#ebebeb"></rect><rect x="288.57" y="268.53" width="7.93" height="34.09" transform="translate(532.33 616.68) rotate(-170.22)" style="fill:#ebebeb"></rect><rect x="363.57" y="273.44" width="7.93" height="29.6" transform="translate(735.07 576.48) rotate(180)" style="fill:#ebebeb"></rect><rect x="345.35" y="273.44" width="7.93" height="29.6" transform="translate(698.62 576.48) rotate(180)" style="fill:#ebebeb"></rect><rect x="299.34" y="273.44" width="7.93" height="29.6" transform="translate(606.61 576.48) rotate(180)" style="fill:#ebebeb"></rect><rect x="321.34" y="272.94" width="7.93" height="29.6" transform="translate(580.44 639.18) rotate(-167.47)" style="fill:#ebebeb"></rect><rect x="356.72" y="267.26" width="3.96" height="35.78" transform="translate(717.4 570.3) rotate(180)" style="fill:#ebebeb"></rect><rect x="309.55" y="267.26" width="3.96" height="35.78" transform="translate(623.06 570.3) rotate(180)" style="fill:#ebebeb"></rect><rect x="379.8" y="268.53" width="7.93" height="34.09" transform="translate(713.46 632.17) rotate(-170.22)" style="fill:#ebebeb"></rect><rect x="390.57" y="273.44" width="7.93" height="29.6" transform="translate(789.07 576.48) rotate(180)" style="fill:#ebebeb"></rect><rect x="412.56" y="272.94" width="7.93" height="29.6" transform="translate(760.73 658.97) rotate(-167.47)" style="fill:#ebebeb"></rect><rect x="400.78" y="267.26" width="3.96" height="35.78" transform="translate(805.52 570.3) rotate(180)" style="fill:#ebebeb"></rect><rect x="428.41" y="161.21" width="25.91" height="220.8" style="fill:#e0e0e0"></rect><rect x="156" y="106.46" width="31.01" height="43.87" transform="translate(299.9 -43.11) rotate(90)" style="fill:#e0e0e0"></rect><rect x="158.02" y="108.52" width="26.96" height="39.75" transform="translate(299.9 -43.11) rotate(90)" style="fill:#ebebeb"></rect><rect x="140.79" y="145.41" width="31.01" height="43.87" transform="translate(323.64 11.05) rotate(90)" style="fill:#e0e0e0"></rect><rect x="142.81" y="147.47" width="26.96" height="39.75" transform="translate(323.64 11.05) rotate(90)" style="fill:#ebebeb"></rect><rect x="113.33" y="104.39" width="27.92" height="39.5" transform="translate(254.58 248.29) rotate(180)" style="fill:#e0e0e0"></rect><rect x="115.15" y="106.25" width="24.28" height="35.79" transform="translate(254.58 248.29) rotate(180)" style="fill:#ebebeb"></rect><rect x="97.45" y="151.84" width="31.01" height="43.87" transform="translate(225.9 347.56) rotate(180)" style="fill:#e0e0e0"></rect><rect x="99.47" y="153.91" width="26.96" height="39.75" transform="translate(225.9 347.56) rotate(180)" style="fill:#ebebeb"></rect><rect x="74.54" y="114.58" width="24.28" height="34.35" transform="translate(-45.08 218.44) rotate(-90)" style="fill:#e0e0e0"></rect><rect x="76.12" y="116.2" width="21.11" height="31.12" transform="translate(-45.08 218.44) rotate(-90)" style="fill:#ebebeb"></rect></g><g id="freepik--Shadow--inject-1"><ellipse id="freepik--path--inject-1" cx="250" cy="416.24" rx="193.89" ry="11.32" style="fill:#f5f5f5"></ellipse></g><g id="freepik--air-conditioner--inject-1"><path d="M435,69v39.32a3.74,3.74,0,0,1-4,3.68H298.21S282.86,104.84,284,94.84c.87-8,1.77-14.49,2.51-19.44A12.23,12.23,0,0,1,298.62,65H431A4,4,0,0,1,435,69Z" style="fill:#407BFF"></path><path d="M435,69v39.32a3.74,3.74,0,0,1-4,3.68H298.21S282.86,104.84,284,94.84c.87-8,1.77-14.49,2.51-19.44A12.23,12.23,0,0,1,298.62,65H431A4,4,0,0,1,435,69Z" style="fill:#fff;opacity:0.6000000000000001"></path><path d="M435,69v39.32a3.74,3.74,0,0,1-4,3.68H419.29S403.93,104.84,405,94.84c.87-8,1.77-14.49,2.51-19.44A12.22,12.22,0,0,1,419.7,65H431A4,4,0,0,1,435,69Z" style="opacity:0.2;isolation:isolate"></path><path d="M287,98H403s3.83,8.5,10.33,12H300S288,104.5,287,98Z" style="fill:#407BFF"></path><path d="M287,98H403s3.83,8.5,10.33,12H300S288,104.5,287,98Z" style="opacity:0.2;isolation:isolate"></path><polygon points="295 106 407 106 405.33 110 295 110 295 106" style="fill:#407BFF"></polygon><polygon points="291 101 403 101 401.33 105 291 105 291 101" style="fill:#407BFF"></polygon><rect x="396.17" y="95" width="2.83" height="1.17" style="fill:#407BFF"></rect><rect x="392.16" y="95" width="2.83" height="1.17" style="fill:#407BFF"></rect><path d="M277.8,90.64a3,3,0,0,1,0-4.28" style="fill:none;stroke:#407BFF;stroke-linecap:round;stroke-linejoin:round"></path><path d="M276.23,92.22a5.25,5.25,0,0,1,0-7.44" style="fill:none;stroke:#407BFF;stroke-linecap:round;stroke-linejoin:round;stroke-width:1.0565900000000001px"></path><path d="M274.77,93.68a7.31,7.31,0,0,1,0-10.36" style="fill:none;stroke:#407BFF;stroke-linecap:round;stroke-linejoin:round"></path><circle cx="279.85" cy="88.5" r="0.85" style="fill:#407BFF"></circle></g><g id="freepik--Table--inject-1"><polygon points="50 315 50 417 57 417 57 330 174 330 174 417 183 417 183 315 50 315" style="fill:#263238"></polygon><polygon points="50 315 50 417 57 417 57 330 174 330 174 417 183 417 183 315 50 315" style="opacity:0.30000000000000004;isolation:isolate"></polygon><polygon points="50 315 50 417 57 417 57 330 174 330 174 417 183 417 183 315 50 315" style="fill:#fff;opacity:0.4;isolation:isolate"></polygon><polygon points="118 315 118 417 125 417 125 330 242 330 242 417 251 417 251 315 118 315" style="fill:#263238"></polygon><polygon points="118 315 118 417 125 417 125 330 242 330 242 417 251 417 251 315 118 315" style="fill:#fff;opacity:0.5;isolation:isolate"></polygon><rect x="195.33" y="244.69" width="47.56" height="70.31" rx="4.49" style="fill:#263238"></rect><rect x="195.33" y="244.69" width="47.56" height="70.31" rx="4.49" style="fill:#fff;opacity:0.1"></rect><rect x="221.67" y="244.69" width="21.22" height="70.31" rx="4.49" style="fill:#fff;opacity:0.1"></rect><path d="M233,266.42a7.13,7.13,0,1,1,7.12-7.13A7.14,7.14,0,0,1,233,266.42Z" style="opacity:0.30000000000000004;isolation:isolate"></path><path d="M239.19,259.29a6.23,6.23,0,1,1-6.23-6.23A6.23,6.23,0,0,1,239.19,259.29Z" style="fill:#fff;opacity:0.2"></path><path d="M235.46,259.29a3.12,3.12,0,1,1-3.11-3.11A3.12,3.12,0,0,1,235.46,259.29Z" style="opacity:0.30000000000000004;isolation:isolate"></path><path d="M234.9,259.29a2.55,2.55,0,1,1-2.55-2.55A2.55,2.55,0,0,1,234.9,259.29Z" style="fill:#fff;opacity:0.2"></path><path d="M233,288.42a8,8,0,1,1,8-8A8,8,0,0,1,233,288.42Z" style="opacity:0.30000000000000004;isolation:isolate"></path><path d="M239.92,280.46a7,7,0,1,1-7-7A7,7,0,0,1,239.92,280.46Z" style="fill:#fff;opacity:0.2"></path><path d="M235.76,280.46a3.48,3.48,0,1,1-3.48-3.48A3.48,3.48,0,0,1,235.76,280.46Z" style="opacity:0.30000000000000004;isolation:isolate"></path><path d="M235.13,280.46a2.85,2.85,0,1,1-2.85-2.85A2.86,2.86,0,0,1,235.13,280.46Z" style="fill:#fff;opacity:0.2"></path><rect x="120.83" y="290.12" width="65.57" height="24.88" style="fill:#263238"></rect><rect x="118" y="272.8" width="72.19" height="20.02" rx="1.77" style="fill:#263238"></rect><rect x="146.67" y="272.8" width="43.52" height="20.02" rx="1.77" style="fill:#fff;opacity:0.2;isolation:isolate"></rect><rect x="118" y="293.81" width="72.19" height="20.02" rx="1.77" style="fill:#263238"></rect><rect x="146.67" y="293.81" width="43.52" height="20.02" rx="1.77" style="fill:#fff;opacity:0.2;isolation:isolate"></rect><rect x="118" y="272.8" width="72.19" height="20.02" rx="1.77" style="fill:#fff;opacity:0.1"></rect><rect x="118" y="293.81" width="72.19" height="20.02" rx="1.77" style="fill:#fff;opacity:0.1"></rect><rect x="162.17" y="280" width="15.05" height="7.15" style="fill:#407BFF;isolation:isolate"></rect><rect x="160.83" y="279.42" width="17.67" height="8.27" style="opacity:0.30000000000000004;isolation:isolate"></rect><path d="M160.92,304.09a4.59,4.59,0,1,1-4.59-4.59A4.59,4.59,0,0,1,160.92,304.09Z" style="fill:#263238"></path><path d="M162.92,304.09a4.59,4.59,0,1,1-4.59-4.59A4.58,4.58,0,0,1,162.92,304.09Z" style="fill:#263238"></path><path d="M162.92,304.09a4.59,4.59,0,1,1-4.59-4.59A4.58,4.58,0,0,1,162.92,304.09Z" style="fill:#fff;opacity:0.5"></path><path d="M186.93,304.09a4.58,4.58,0,1,1-4.58-4.59A4.58,4.58,0,0,1,186.93,304.09Z" style="fill:#263238"></path><path d="M188.93,304.09a4.58,4.58,0,1,1-4.58-4.59A4.58,4.58,0,0,1,188.93,304.09Z" style="fill:#263238"></path><path d="M188.93,304.09a4.58,4.58,0,1,1-4.58-4.59A4.58,4.58,0,0,1,188.93,304.09Z" style="fill:#fff;opacity:0.5"></path><rect x="164.58" y="303.17" width="2.04" height="2.04" style="fill:#fff;opacity:0.5"></rect><rect x="167.41" y="303.17" width="2.04" height="2.04" style="fill:#fff;opacity:0.5"></rect><rect x="170.23" y="303.17" width="2.04" height="2.04" style="fill:#fff;opacity:0.5"></rect><rect x="173.06" y="303.17" width="2.04" height="2.04" style="fill:#fff;opacity:0.5"></rect><rect x="63.33" y="244.69" width="47.56" height="70.31" rx="4.49" style="fill:#263238"></rect><rect x="63.33" y="244.69" width="47.56" height="70.31" rx="4.49" style="fill:#fff;opacity:0.1"></rect><rect x="89.67" y="244.69" width="21.22" height="70.31" rx="4.49" style="fill:#fff;opacity:0.1"></rect><path d="M101,266.42a7.13,7.13,0,1,1,7.12-7.13A7.14,7.14,0,0,1,101,266.42Z" style="opacity:0.30000000000000004;isolation:isolate"></path><path d="M107.19,259.29a6.23,6.23,0,1,1-6.23-6.23A6.23,6.23,0,0,1,107.19,259.29Z" style="fill:#fff;opacity:0.2"></path><path d="M103.46,259.29a3.12,3.12,0,1,1-3.11-3.11A3.12,3.12,0,0,1,103.46,259.29Z" style="opacity:0.30000000000000004;isolation:isolate"></path><path d="M102.9,259.29a2.55,2.55,0,1,1-2.55-2.55A2.55,2.55,0,0,1,102.9,259.29Z" style="fill:#fff;opacity:0.2"></path><path d="M101,288.42a8,8,0,1,1,8-8A8,8,0,0,1,101,288.42Z" style="opacity:0.30000000000000004;isolation:isolate"></path><path d="M107.92,280.46a7,7,0,1,1-7-7A7,7,0,0,1,107.92,280.46Z" style="fill:#fff;opacity:0.2"></path><path d="M103.76,280.46a3.48,3.48,0,1,1-3.48-3.48A3.48,3.48,0,0,1,103.76,280.46Z" style="opacity:0.30000000000000004;isolation:isolate"></path><path d="M103.13,280.46a2.85,2.85,0,1,1-2.85-2.85A2.86,2.86,0,0,1,103.13,280.46Z" style="fill:#fff;opacity:0.2"></path><path d="M156,263.55a3,3,0,0,1,4.29,0" style="fill:none;stroke:#407BFF;stroke-linecap:round;stroke-linejoin:round"></path><path d="M154.42,262a5.27,5.27,0,0,1,7.44,0" style="fill:none;stroke:#407BFF;stroke-linecap:round;stroke-linejoin:round;stroke-width:1.0565900000000001px"></path><path d="M153,260.51a7.34,7.34,0,0,1,10.37,0" style="fill:none;stroke:#407BFF;stroke-linecap:round;stroke-linejoin:round"></path><path d="M159,265.59a.86.86,0,1,1-.85-.85A.85.85,0,0,1,159,265.59Z" style="fill:#407BFF"></path></g><g id="freepik--Sofa--inject-1"><rect x="232.68" y="327.74" width="83.49" height="70.61" rx="11.63" style="fill:#407BFF"></rect><rect x="232.68" y="327.74" width="83.49" height="70.61" rx="11.63" style="fill:#fff;opacity:0.1;isolation:isolate"></rect><path d="M244.3,398.36h0a11.63,11.63,0,0,1-11.62-11.63V339.37a11.63,11.63,0,0,1,11.62-11.63h0a11.63,11.63,0,0,1,11.63,11.63v47.36A11.63,11.63,0,0,1,244.3,398.36Z" style="fill:#fff;opacity:0.2;isolation:isolate"></path><polygon points="100 395.57 96.5 417 104 417 110.89 396.56 100 395.57" style="fill:#263238"></polygon><polygon points="202.39 395.57 205.89 417 198.39 417 191.5 396.56 202.39 395.57" style="fill:#263238"></polygon><polygon points="100 395.57 96.5 417 104 417 110.89 396.56 100 395.57" style="fill:#fff;opacity:0.1;isolation:isolate"></polygon><polygon points="202.39 395.57 205.89 417 198.39 417 191.5 396.56 202.39 395.57" style="fill:#fff;opacity:0.1;isolation:isolate"></polygon><polygon points="309 395.57 305.5 417 313 417 319.89 396.56 309 395.57" style="fill:#263238"></polygon><polygon points="411.39 395.57 414.89 417 407.39 417 400.5 396.56 411.39 395.57" style="fill:#263238"></polygon><rect x="85" y="350" width="341" height="51" rx="8.64" style="fill:#407BFF"></rect><rect x="85" y="350" width="341" height="51" rx="8.64" style="fill:#fff;opacity:0.1;isolation:isolate"></rect><rect x="85" y="350" width="129" height="51" rx="8.64" style="fill:#fff;opacity:0.2;isolation:isolate"></rect><path d="M298,351.18h123l18.74-96.78A17.15,17.15,0,0,0,422.85,234H334.79A17.15,17.15,0,0,0,318,247.88Z" style="fill:#407BFF"></path><g style="opacity:0.1;isolation:isolate"><path d="M298,351.18h123l18.74-96.78A17.15,17.15,0,0,0,422.85,234H334.79A17.15,17.15,0,0,0,318,247.88Z" style="fill:#fff"></path></g><path d="M298,351H386l20-103.21A17.07,17.07,0,0,1,422.85,234H334.79A17.07,17.07,0,0,0,318,247.8Z" style="fill:#fff;opacity:0.2;isolation:isolate"></path><rect x="362.76" y="327.74" width="83.49" height="70.61" rx="11.63" style="fill:#407BFF"></rect><rect x="362.76" y="327.74" width="83.49" height="70.61" rx="11.63" style="fill:#fff;opacity:0.1;isolation:isolate"></rect><path d="M374.38,398.36h0a11.63,11.63,0,0,1-11.62-11.63V339.37a11.63,11.63,0,0,1,11.62-11.63h0A11.63,11.63,0,0,1,386,339.37v47.36A11.63,11.63,0,0,1,374.38,398.36Z" style="fill:#fff;opacity:0.2;isolation:isolate"></path></g><g id="freepik--Character--inject-1"><g id="freepik--group--inject-1"><path d="M324.11,340.63s-9.44,13.37-24,12.37c-27.27-1.87-60.41-40-64.41-40.33-6.33-.53-59,28-59,28L167,329.83s56.65-44.71,69-45.44S324.11,340.63,324.11,340.63Z" style="fill:#407BFF"></path><path d="M324.25,340.63a.7.7,0,0,0-.25.53h0a34,34,0,0,1-10.21,8.6A24.45,24.45,0,0,1,300.15,353c-27.27-1.87-60.44-40-64.44-40.33-6.33-.53-59,28-59,28L167,329.83s22-17.33,41.51-30.59c11.85-8,22.82-14.57,27.48-14.85,11.46-.67,77.58,48.32,87.05,55.39C323.79,340.33,324.25,340.63,324.25,340.63Z" style="fill:#fff;opacity:0.6000000000000001;isolation:isolate"></path><path d="M308.92,236.35s-5.36-.1-5.54.85.16,8.78.87,9.88a17,17,0,0,0,2.67,2.69L303,261.44l6.61,3.35,2.9-12.72s3.28-3.21,2.32-7.28S308.92,236.35,308.92,236.35Z" style="fill:#eec1bb"></path><path d="M308.92,236.35s-5.36-.1-5.54.85.16,8.78.87,9.88a17,17,0,0,0,2.67,2.69L303,261.44l6.61,3.35,2.9-12.72s3.28-3.21,2.32-7.28S308.92,236.35,308.92,236.35Z" style="opacity:0.2;isolation:isolate"></path><polygon points="302 261.59 303.63 258.15 311.71 261.59 311.18 265.75 302 261.59" style="fill:#263238"></polygon><path d="M331.5,251.5c-8,.17-21.67,32.17-21.67,32.17s3.09-15.67,2.38-17.5-7.54-6.34-11.21-5.34-11.5,26.76-6,35.8,15.67,11.2,29.83,1.7S331.5,251.5,331.5,251.5Z" style="fill:#263238"></path><path d="M326,297.45c-.37.31-.76.57-1.16.85-8.12,5.44-14.92,6.7-20.29,5.7h0a15.49,15.49,0,0,1-9.53-7.41c-5.5-9,2.33-34.78,6-35.78s10.5,3.51,11.21,5.35S310,283,309.84,283.65c.42-1,13.78-32,21.66-32.15C331.5,251.5,338.58,286.73,326,297.45Z" style="opacity:0.30000000000000004;isolation:isolate"></path><path d="M326,297.45a14.14,14.14,0,0,1-1.16.88c-8.12,5.44-14.92,7.06-20.29,5.74,11.29-5.42,19.75-19.68,19.75-19.68Z" style="opacity:0.2;isolation:isolate"></path><path d="M344.72,250.67s3.93-7.18,19.1-4.34,12.24,8.79,7.36,10.89-22.42,0-22.42,0S343.74,253.33,344.72,250.67Z" style="fill:#263238"></path><path d="M344.72,250.67s3.93-7.18,19.1-4.34,12.24,8.79,7.36,10.89-22.42,0-22.42,0S343.74,253.33,344.72,250.67Z" style="opacity:0.2;isolation:isolate"></path><path d="M302,318.62s15.25-10.36,20-26,9.5-41.13,9.5-41.13,22.75-5.75,44.75,2.5-2.68,80.21-22.91,87.81Z" style="fill:#263238"></path><path d="M366.58,231.61c-2,6-4.63,17.15-.84,21.82A19.89,19.89,0,0,1,351,257.65c-7.93-.82-4.37-6.65-4.37-6.65,7.08-.77,7.55-5.9,7-10.84Z" style="fill:#eec1bb"></path><path d="M361.27,235.1l-7.72,5.06a20.12,20.12,0,0,1,.16,3.47c2.68,0,6.65-2.47,7.28-5.18A9.24,9.24,0,0,0,361.27,235.1Z" style="opacity:0.2;isolation:isolate"></path><path d="M354,213.41c3.07,2.83.93,6.52-7.7,11.51-2.53-4.53-1.87-12.5.91-14.12S351.32,211,354,213.41Z" style="fill:#263238"></path><path d="M367.72,222c-1.18,6.09-1.78,10.37-3.91,13.69a13.19,13.19,0,0,1-3,3.25c-7.19,5.61-17,.43-17.89-8.16,0-.27-.05-.55-.06-.83-.54-7.75,2.32-19.23,10.63-21.39A11.5,11.5,0,0,1,367.72,222Z" style="fill:#eec1bb"></path><path d="M363.81,235.64a13.19,13.19,0,0,1-3,3.25c-7.19,5.61-17,.43-17.89-8.16,0-.27-.05-.55-.06-.83,1.56.87,3.74,1.85,5.38,1.71,2.87-.23,5.94-2.2,7.93-2.83a8.68,8.68,0,0,1,3.75-.1s3.19-2,4-5l.8,1.74A22.94,22.94,0,0,1,363.81,235.64Z" style="opacity:0.30000000000000004;isolation:isolate"></path><path d="M355,222.6c-.09.68-.53,1.18-1,1.12s-.73-.65-.64-1.33.52-1.18,1-1.13S355,221.93,355,222.6Z" style="fill:#263238"></path><path d="M347.23,221.6c-.09.68-.52,1.18-1,1.12s-.74-.65-.65-1.34.52-1.18,1-1.12S347.32,220.92,347.23,221.6Z" style="fill:#263238"></path><path d="M349.71,222.25a24.25,24.25,0,0,1-4,5.38,3.92,3.92,0,0,0,3.17,1Z" style="fill:#d58745"></path><path d="M357.39,220.44a.34.34,0,0,0,.26,0,.42.42,0,0,0,.16-.55,4,4,0,0,0-3-2.07.38.38,0,0,0-.42.35v0a.42.42,0,0,0,.37.43h0a3.19,3.19,0,0,1,2.38,1.66A.4.4,0,0,0,357.39,220.44Z" style="fill:#263238"></path><path d="M344.06,218.53a.41.41,0,0,0,.39-.18,3.22,3.22,0,0,1,2.49-1.51.4.4,0,0,0,.4-.4A.41.41,0,0,0,347,216a4,4,0,0,0-3.17,1.88.4.4,0,0,0,.11.55h0A.44.44,0,0,0,344.06,218.53Z" style="fill:#263238"></path><path d="M365.37,214.11c-4.08.83-4.15,5.1.66,13.82,4.51-2.57,8.07-9.74,6.5-12.55S368.93,213.4,365.37,214.11Z" style="fill:#263238"></path><path d="M370.82,229.15a8,8,0,0,1-4.4,4.26c-2.63,1-4.2-1.28-3.69-3.89.45-2.36,2.37-5.72,5.11-5.6S371.85,226.76,370.82,229.15Z" style="fill:#eec1bb"></path><path d="M354.92,231s-1.85,2.51-5.87,1.78" style="fill:none;stroke:#263238;stroke-linecap:round;stroke-linejoin:round;stroke-width:0.526291px"></path><path d="M347.13,208.12c-.16.94.12,2.46,5.2,3.21s9.75-1.41,11.34,0,3.23,5.95,3.23,5.95l5.6-1.25s1.25-3.7-1.75-7.91-19.74-1-21-3.29C349.71,204.83,347.46,206.09,347.13,208.12Z" style="fill:#263238"></path><polygon points="160.39 349.98 156.51 342.94 171.03 330.74 174.9 337.78 160.39 349.98" style="fill:#eec1bb"></polygon><polygon points="174.9 337.78 171.03 330.75 162.72 337.72 166.91 344.51 174.9 337.78" style="opacity:0.2;isolation:isolate"></polygon><polygon points="174.86 344.36 163.4 330.9 168.56 325.19 180.84 340.19 174.86 344.36" style="fill:#407BFF"></polygon><polygon points="174.86 344.36 163.4 330.9 168.56 325.19 180.84 340.19 174.86 344.36" style="fill:#fff;opacity:0.2"></polygon><path d="M157,343.55h0l-.42,0c0-.13.79-2.17.45-3.22a1.61,1.61,0,0,0-.82-.67.92.92,0,0,0-1,.16,2.86,2.86,0,0,0-.31,2c-.49-.71-1.15-1.45-1.72-1.51a.72.72,0,0,0-.64.27,1,1,0,0,0-.29,1,2.19,2.19,0,0,0,1.15,1,10.19,10.19,0,0,0,2,.73s0,0,.06,0,0,0,.06,0,.31.11.34.09l.7.09Zm-1.62-3.49a.34.34,0,0,1,.44-.07l.09,0a.53.53,0,0,1,.27.33,4,4,0,0,1-.69,2.45l-.09-.16A3.81,3.81,0,0,1,155.38,340.06Zm-2.77,1.42a.66.66,0,0,1,.19-.65.31.31,0,0,1,.31-.13c.56.06,1.43,1.27,2,2.23C153.69,342.51,152.77,342,152.61,341.48Z" style="fill:#407BFF"></path><path d="M156.57,342.76l8,4.18a.57.57,0,0,1,.28.76h0l-2.92,6.53a1.41,1.41,0,0,1-1.9.6c-2.77-1.5-4-2.36-7.51-4.23-2.15-1.13-6.52-3.17-9.22-5.19s-.64-4.63.69-4c3.14,1.45,8.34,1.65,11.17,1.12A2.27,2.27,0,0,1,156.57,342.76Z" style="fill:#263238"></path><path d="M351,257.65s.68-4.22,10.36-8.1,17.86.43,16.69,3.28c0,0,6.29.65,3.06,4.82S351,257.65,351,257.65Z" style="fill:#263238"></path><path d="M348.76,257.22A8.76,8.76,0,0,1,350,248s-1.45-2.66-4.32,0C345.7,248,334.19,250.94,348.76,257.22Z" style="fill:#263238"></path><path d="M351,257.65s.68-4.22,10.36-8.1,17.86.43,16.69,3.28c0,0,6.29.65,3.06,4.82S351,257.65,351,257.65Z" style="opacity:0.2;isolation:isolate"></path><path d="M348.76,257.22A8.76,8.76,0,0,1,350,248s-1.45-2.66-4.32,0C345.7,248,334.19,250.94,348.76,257.22Z" style="opacity:0.2;isolation:isolate"></path><path d="M346.39,255.69s-5.64,2.11-6.14,16S333,285.44,333,285.44" style="fill:none;stroke:#fff;stroke-linecap:round;stroke-linejoin:round"></path><path d="M353,256.63s-2.78,4.37-1,12.87.77,18.13-5,21.25" style="fill:none;stroke:#fff;stroke-linecap:round;stroke-linejoin:round"></path><path d="M318,243.2a.8.8,0,0,1-.89.85l-9.12-.71a1.06,1.06,0,0,1-1-1l-.63-18.15a.91.91,0,0,1,.9-1l9.11.7a1.19,1.19,0,0,1,.95,1.12Z" style="fill:#263238"></path><path d="M316.37,224.86l.65,18.32a.69.69,0,0,1-.78.8l-7.73-.6c-.52,0-1.44-.4-1.46-.92l-.65-18.38c0-.51.9-.85,1.42-.81l7.72.6A.94.94,0,0,1,316.37,224.86Z" style="fill:#fff;opacity:0.5"></path><path d="M327.27,257l-3.46-8.08s-1.13-10.84-1.68-12-9.36-.73-10.32-.8S311,246.85,312,248s4.52,2.05,4.52,2.05l4.42,11.56Z" style="fill:#eec1bb"></path><polygon points="319.23 261.59 318.01 256.63 327.27 252.02 328.67 256.81 319.23 261.59" style="fill:#263238"></polygon><path d="M318,261.59c1.07-2.85,5.82-7.2,10.66-5.9s15.84,36.14,18.67,37.81,22.39-28.33,27.78-30.5,9.5.13,9.69,12.48-19.9,46.47-37.1,43.66S313.5,273.69,318,261.59Z" style="fill:#263238"></path><path d="M318,261.59c1.07-2.85,5.82-7.2,10.66-5.9s15.84,36.14,18.67,37.81,22.39-28.33,27.78-30.5,9.5.13,9.69,12.48-19.9,46.47-37.1,43.66S313.5,273.69,318,261.59Z" style="opacity:0.2;isolation:isolate"></path><path d="M319.4,350a28.85,28.85,0,0,1-5.68-.27c-28.94-4-69-47.65-70.94-50-1.38-1.67-21.18-1.1-34.24-.53,11.85-8,22.81-14.57,27.47-14.85,11.46-.67,77.65,48.32,87.12,55.39.27.47-.13.93.87,1.38h0C326,346.3,325.5,349.69,319.4,350Z" style="opacity:0.30000000000000004;isolation:isolate"></path><path d="M362.36,334.77S351.5,357.59,317.5,352.5c-27-4.05-62.54-57.23-65.92-59.39-5.34-3.43-65.22-2.92-65.22-2.92l-3.49-14.08s71-13,82.25-7.83c6.17,2.82,63.13,52,63.13,52Z" style="fill:#407BFF"></path><path d="M362.36,334.77S351.5,357.59,317.5,352.5c-27-4.05-62.54-57.23-65.92-59.39-5.34-3.43-65.22-2.92-65.22-2.92l-3.49-14.08s71-13,82.25-7.83c6.17,2.82,63.13,52,63.13,52Z" style="fill:#fff;opacity:0.6000000000000001;isolation:isolate"></path><polygon points="167.6 290.82 167.47 282.78 186.01 278.81 186.13 286.84 167.6 290.82" style="fill:#eec1bb"></polygon><polygon points="186.13 286.84 186 278.81 175.4 281.08 175.92 289.04 186.13 286.84" style="opacity:0.2;isolation:isolate"></polygon><polygon points="183.01 292.63 179.19 275.38 186.43 272.74 190.25 291.75 183.01 292.63" style="fill:#407BFF"></polygon><polygon points="183.01 292.63 179.19 275.38 186.43 272.74 190.25 291.75 183.01 292.63" style="fill:#fff;opacity:0.2"></polygon><path d="M168,283.52h0l-.57-.17a6.7,6.7,0,0,0,1.81-2.63c0-.29-.27-.74-.46-1a.94.94,0,0,0-1-.33,2.92,2.92,0,0,0-1.22,1.6,3.3,3.3,0,0,0-.81-2.13.73.73,0,0,0-.7-.07,1,1,0,0,0-.74.78,2.15,2.15,0,0,0,.52,1.46,10.28,10.28,0,0,0,1.43,1.59s0,0,0,.06h.07s.23.25.26.24.76.41.77.4Zm-.18-3.8c.1-.05.24-.07.42.14l.06.07a.52.52,0,0,1,.08.42c-.1.66-1.12,1.43-1.76,1.85V282A3.76,3.76,0,0,1,167.82,279.72Zm-3.12-.05a.68.68,0,0,1,.47-.49.35.35,0,0,1,.34,0c.47.32.67,1.8.71,2.9C165.17,281.09,164.61,280.19,164.7,279.67Z" style="fill:#407BFF"></path><path d="M167.6,282.65l5.1,7.44a.57.57,0,0,1-.11.8h0l-5.64,4.4a1.43,1.43,0,0,1-2-.35c-1.73-2.63-2.43-4-4.65-7.26-1.37-2-4.27-5.86-5.71-8.9s1.6-4.39,2.48-3.23c2.1,2.75,6.6,5.36,9.35,6.22A2.31,2.31,0,0,1,167.6,282.65Z" style="fill:#263238"></path></g><path d="M310.06,218.43a3,3,0,0,1,4.29,0" style="fill:none;stroke:#407BFF;stroke-linecap:round;stroke-linejoin:round"></path><path d="M308.49,216.85a5.27,5.27,0,0,1,7.44,0" style="fill:none;stroke:#407BFF;stroke-linecap:round;stroke-linejoin:round;stroke-width:1.0565900000000001px"></path><path d="M307,215.39a7.34,7.34,0,0,1,10.37,0" style="fill:none;stroke:#407BFF;stroke-linecap:round;stroke-linejoin:round"></path><path d="M313.06,220.47a.86.86,0,1,1-.85-.85A.85.85,0,0,1,313.06,220.47Z" style="fill:#407BFF"></path></g><g id="freepik--Bubble--inject-1"><rect x="165.57" y="131.92" width="121.03" height="74.58" rx="6.18" style="fill:#407BFF"></rect><rect x="166.59" y="132.93" width="119" height="72.55" rx="5.44" style="fill:#407BFF"></rect><rect x="166.59" y="132.93" width="119" height="72.55" rx="5.44" style="fill:#fff;opacity:0.6000000000000001;isolation:isolate"></rect><rect x="166.59" y="132.93" width="119" height="68.55" rx="5.44" style="fill:#fff;opacity:0.2;isolation:isolate"></rect><rect x="174.48" y="138.96" width="95.21" height="11.4" rx="1.67" style="fill:#fff"></rect><text transform="translate(177.42 148.35)" style="font-size:8.03225040435791px;fill:#407BFF;font-family:Bebas">L<tspan x="3.68" y="0" style="letter-spacing:0.02054705147270531em">A</tspan><tspan x="8.48" y="0" style="letter-spacing:0.02772028246021781em">M</tspan><tspan x="14.45" y="0">P</tspan></text><rect x="174.48" y="138.96" width="95.21" height="11.4" rx="1.67" style="fill:#fff;opacity:0.30000000000000004"></rect><rect x="174.48" y="153.32" width="95.21" height="11.4" rx="1.67" style="fill:#fff"></rect><text transform="translate(177.42 162.72)" style="font-size:8.03225040435791px;fill:#407BFF;font-family:Bebas"><tspan style="letter-spacing:0.02060784156581982em">A</tspan><tspan x="4.8" y="0" style="letter-spacing:0.0276594923671033em">I</tspan><tspan x="6.85" y="0">R </tspan><tspan x="11.95" y="0" style="letter-spacing:0.015623053930429774em">C</tspan><tspan x="16.23" y="0" style="letter-spacing:0.025531839108095353em">O</tspan><tspan x="20.59" y="0" style="letter-spacing:0.02772028246021781em">N</tspan><tspan x="25.28" y="0" style="letter-spacing:0.025592629201209867em">D</tspan><tspan x="29.61" y="0" style="letter-spacing:0.015623053930429774em">IT</tspan><tspan x="35.79" y="0" style="letter-spacing:0.026261320225469505em">I</tspan><tspan x="37.82" y="0" style="letter-spacing:0.025531839108095353em">o</tspan><tspan x="42.19" y="0" style="letter-spacing:0.02772028246021781em">N</tspan><tspan x="46.87" y="0">ER</tspan></text><rect x="174.48" y="153.32" width="95.21" height="11.4" rx="1.67" style="fill:#fff;opacity:0.30000000000000004"></rect><rect x="174.48" y="167.69" width="95.21" height="11.4" rx="1.67" style="fill:#fff"></rect><text transform="translate(177.42 177.08)" style="font-size:8.03225040435791px;fill:#407BFF;font-family:Bebas"><tspan style="letter-spacing:0.026990801342843658em">M</tspan><tspan x="5.96" y="0" style="letter-spacing:0.018419398213697362em">U</tspan><tspan x="10.27" y="0" style="letter-spacing:0.019148879331071515em">S</tspan><tspan x="14.73" y="0" style="letter-spacing:0.026261320225469505em">I</tspan><tspan x="16.76" y="0">C</tspan></text><rect x="174.48" y="167.69" width="95.21" height="11.4" rx="1.67" style="fill:#fff;opacity:0.30000000000000004"></rect><rect x="174.48" y="182.05" width="95.21" height="11.4" rx="1.67" style="fill:#fff"></rect><text transform="translate(177.42 191.45)" style="font-size:8.03225040435791px;fill:#407BFF;font-family:Bebas">TV</text><rect x="174.48" y="182.05" width="95.21" height="11.4" rx="1.67" style="fill:#fff;opacity:0.30000000000000004"></rect><rect x="249.69" y="140.69" width="17.67" height="7.93" rx="1.58" style="fill:#263238"></rect><rect x="249.69" y="140.69" width="7.66" height="7.93" rx="1.58" style="fill:#fff;opacity:0.5"></rect><rect x="249.69" y="140.69" width="17.67" height="7.93" rx="1.58" style="fill:#fff;opacity:0.5"></rect><rect x="249.69" y="183.72" width="17.67" height="7.93" rx="1.58" style="fill:#263238"></rect><rect x="249.69" y="183.72" width="7.66" height="7.93" rx="1.58" style="fill:#fff;opacity:0.5"></rect><rect x="249.69" y="183.72" width="17.67" height="7.93" rx="1.58" style="fill:#fff;opacity:0.5"></rect><rect x="249.69" y="169.37" width="17.67" height="7.93" rx="1.58" style="fill:#407BFF"></rect><rect x="259.7" y="169.37" width="7.66" height="7.93" rx="1.58" style="fill:#fff;opacity:0.5"></rect><rect x="249.69" y="155.03" width="17.67" height="7.93" rx="1.58" style="fill:#407BFF"></rect><rect x="259.7" y="155.03" width="7.66" height="7.93" rx="1.58" style="fill:#fff;opacity:0.5"></rect><path d="M269.69,205.25v-7.52a1.66,1.66,0,0,0-1.66-1.67H176.15a1.67,1.67,0,0,0-1.67,1.67v7.52Z" style="fill:#fff"></path><path d="M250.22,205.25h16.61a1.57,1.57,0,0,0,.53-1.17V199.3a1.57,1.57,0,0,0-1.58-1.57H251.27a1.57,1.57,0,0,0-1.58,1.57v4.78A1.57,1.57,0,0,0,250.22,205.25Z" style="fill:#263238"></path><path d="M250.22,205.25h6.61a1.56,1.56,0,0,0,.52-1.17V199.3a1.57,1.57,0,0,0-1.58-1.57h-4.5a1.57,1.57,0,0,0-1.58,1.57v4.78A1.57,1.57,0,0,0,250.22,205.25Z" style="fill:#fff;opacity:0.5"></path><path d="M250.22,205.25h16.61a1.57,1.57,0,0,0,.53-1.17V199.3a1.57,1.57,0,0,0-1.58-1.57H251.27a1.57,1.57,0,0,0-1.58,1.57v4.78A1.57,1.57,0,0,0,250.22,205.25Z" style="fill:#fff;opacity:0.5"></path><path d="M276.63,201.76h0a2.13,2.13,0,0,1-2.13-2.13V141.08a2.12,2.12,0,0,1,2.13-2.12h0a2.12,2.12,0,0,1,2.12,2.12v58.55A2.12,2.12,0,0,1,276.63,201.76Z" style="opacity:0.2"></path><path d="M276.63,161.73h0a2.12,2.12,0,0,1-2.13-2.12V141.08a2.12,2.12,0,0,1,2.13-2.12h0a2.12,2.12,0,0,1,2.12,2.12v18.53A2.12,2.12,0,0,1,276.63,161.73Z" style="fill:#fff"></path><line x1="224.5" y1="206" x2="224.5" y2="209" style="fill:none;stroke:#407BFF;stroke-linecap:round;stroke-linejoin:round"></line><line x1="224.5" y1="211" x2="224.5" y2="225" style="fill:none;stroke:#407BFF;stroke-linecap:round;stroke-linejoin:round;stroke-dasharray:5,2"></line><polyline points="224.5 226 224.5 228.5 227 228.5" style="fill:none;stroke:#407BFF;stroke-linecap:round;stroke-linejoin:round"></polyline><line x1="229" y1="228.5" x2="298" y2="228.5" style="fill:none;stroke:#407BFF;stroke-linecap:round;stroke-linejoin:round;stroke-dasharray:5,2"></line><line x1="299" y1="228.5" x2="302" y2="228.5" style="fill:none;stroke:#407BFF;stroke-linecap:round;stroke-linejoin:round"></line><circle cx="303.48" cy="228.5" r="1.15" style="fill:#407BFF"></circle></g></svg>